<?xml version="1.0"?>
<svg xmlns="http://www.w3.org/2000/svg" xmlns:xlink="http://www.w3.org/1999/xlink" version="1.1" id="Capa_1" x="0px" y="0px" viewBox="0 0 70.906 70.906" style="enable-background:#000;" xml:space="preserve" width="512px" height="512px" fill="transparent" class=""><g><g>
	<path d="M28.541,35.953c-0.128,0-0.256-0.049-0.354-0.146c-0.195-0.195-0.195-0.512,0-0.707l9.896-9.896   c0.195-0.195,0.512-0.195,0.707,0s0.195,0.512,0,0.707l-9.896,9.896C28.797,35.904,28.669,35.953,28.541,35.953z" data-original="#fff" class="active-path" data-old_color="#fff" fill="#fff"/>
	<path d="M38.531,45.943c-0.128,0-0.256-0.049-0.354-0.146l-9.99-9.99c-0.195-0.195-0.195-0.512,0-0.707s0.512-0.195,0.707,0   l9.99,9.99c0.195,0.195,0.195,0.512,0,0.707C38.787,45.895,38.659,45.943,38.531,45.943z" data-original="#fff" class="active-path" data-old_color="#fff" fill="#fff"/>
	<path d="M35.453,70.906C15.904,70.906,0,55.002,0,35.453S15.904,0,35.453,0s35.453,15.904,35.453,35.453   S55.002,70.906,35.453,70.906z M35.453,1C16.456,1,1,16.456,1,35.453s15.456,34.453,34.453,34.453S69.906,54.45,69.906,35.453   S54.45,1,35.453,1z" data-original="#fff"/>
</g></g> </svg>
